<svg xmlns="http://www.w3.org/2000/svg" width="19" height="23" viewBox="0 0 19 23" fill="none">
  <path d="M1.59069 16.6171C1.50231 16.1844 1.41395 15.7516 1.32558 15.3189C1.32558 15.3189 1.32558 15.3189 1.32558 15.2324C1.32558 15.0593 1.32555 14.8862 1.23718 14.7131C1.23718 13.7611 1.32558 12.7225 1.76744 11.857C2.12093 10.8184 2.7395 9.95296 3.44648 9.17403C4.41857 8.13546 5.56745 7.35654 6.80466 6.66416C6.89303 6.66416 6.9814 6.57761 7.06977 6.57761C7.06977 6.57761 7.06975 6.66416 7.15812 6.66416C6.53951 7.18344 5.92092 7.78927 5.56743 8.48165C5.12557 9.17403 4.9488 9.95296 4.77206 10.8184C6.45113 9.60677 8.13024 8.3951 9.89769 7.18344V7.26999C10.5163 10.0395 11.1349 12.809 11.7535 15.5786V15.6651C10.6046 16.444 9.54419 17.2229 8.39535 18.0884C8.39535 18.0884 8.39532 18.0884 8.30694 18.0884C7.68834 15.3189 7.06976 12.6359 6.45115 9.86641C5.92092 10.2991 5.39067 10.6453 4.77206 11.0781C4.77206 11.0781 4.77206 11.0781 4.77206 11.1646C4.77206 11.3377 4.77206 11.5974 4.77206 11.7705C4.77206 12.5494 4.86045 13.3283 5.12557 14.1072C5.30231 14.7996 5.56745 15.492 5.92094 16.0978C6.62792 17.1364 7.51162 17.9153 8.66045 18.3481C9.63255 18.6943 10.6047 18.7808 11.6651 18.6077C12.1954 18.5212 12.8139 18.4346 13.3442 18.2615C14.0511 18.0884 14.6698 17.7422 15.2884 17.396C15.3767 17.396 15.3767 17.3095 15.3767 17.3095C15.1116 16.0113 14.7581 14.7131 14.493 13.3283C14.493 13.2418 14.493 13.2418 14.4046 13.2418C13.6093 12.809 12.9023 12.3763 12.107 11.9436C12.0186 11.857 11.8418 11.7705 11.7535 11.7705C12.3721 10.9915 12.9023 10.2126 13.5209 9.43367V9.34713C13.3442 8.48165 13.1674 7.52963 12.9023 6.66416C12.9023 6.66416 12.9023 6.66416 12.9023 6.57761H12.814C12.1953 6.7507 11.6651 6.7507 11.0465 6.7507C10.3395 6.7507 9.54419 6.66416 8.83721 6.66416C7.95349 6.57761 6.98136 6.49106 6.09764 6.40451C5.30229 6.31796 4.59534 6.31796 3.79999 6.40451C3.4465 6.49106 3.09303 6.49106 2.82792 6.7507C2.38606 7.01034 2.12092 7.35654 2.03255 7.78928C1.94418 8.13547 2.03253 8.48165 2.1209 8.7413C2.20927 9.00094 2.38605 9.26058 2.65116 9.43367C2.73953 9.52022 2.8279 9.52023 2.91627 9.52023V9.60677C2.56278 9.52022 2.20928 9.52022 1.85579 9.34713C1.32556 9.17403 0.883732 8.91439 0.618615 8.48165C0.176755 7.87582 0 7.18344 0 6.40451C0 5.71213 0.265105 5.01975 0.706966 4.41392C1.2372 3.72154 1.85581 3.20225 2.65116 2.85606C3.26977 2.59642 3.97675 2.42333 4.59536 2.42333C5.12559 2.33678 5.65581 2.42333 6.18605 2.42333C6.9814 2.50987 7.68837 2.59642 8.39535 2.68297C9.10233 2.76952 9.89767 2.85606 10.6047 2.85606C11.0465 2.85606 11.4883 2.85607 11.8418 2.68297C12.1953 2.59642 12.4605 2.33678 12.6372 2.07713C12.9907 1.4713 12.7256 0.51928 11.9302 0.346185C11.5767 0.259637 11.1349 0.259643 10.7814 0.432738C10.693 0.432738 10.5163 0.519284 10.4279 0.519284C10.4279 0.432736 10.4279 0.432732 10.5162 0.346185C10.5162 0.346185 10.5163 0.346185 10.6047 0.346185C10.693 0.259637 10.8697 0.25964 10.9581 0.173092C11.2232 0.0865449 11.4883 0.0865475 11.8418 0C11.8418 0 11.8419 0 11.9302 0C12.3721 0 12.8139 -1.3219e-06 13.1674 0.0865462C13.786 0.173094 14.3163 0.432732 14.7582 0.778922C15.2884 1.21166 15.6418 1.73095 15.8186 2.33678C15.9953 3.02916 15.9953 3.635 15.8186 4.32738C15.4651 5.45249 14.6698 6.23142 13.5209 6.66416C13.4325 6.7507 13.2558 6.7507 13.1674 6.83725C13.1674 6.83725 13.1674 6.83725 13.1674 6.9238C13.3442 7.78928 13.5209 8.7413 13.786 9.60677C13.786 9.60677 13.7861 9.69332 13.8744 9.69332C14.5814 10.1261 15.2884 10.4722 16.0837 10.905C16.2605 10.9915 16.4372 11.0781 16.6139 11.1646C16.6139 11.1646 16.614 11.2512 16.5256 11.2512C15.907 12.0301 15.3768 12.809 14.7582 13.588V13.6745C15.0233 14.9727 15.3768 16.2709 15.6419 17.5691C15.6419 17.5691 15.6419 17.5691 15.6419 17.6557C16.4372 17.0499 17.1442 16.3575 17.6744 15.5786C18.2047 14.7131 18.4697 13.8476 18.6465 12.8956C18.6465 12.809 18.6465 12.809 18.7349 12.809C18.7349 12.8956 18.8232 12.9821 18.8232 13.1552C18.8232 13.1552 18.8232 13.1552 18.8232 13.2418C18.9116 13.761 19 14.2803 19 14.7996C19 15.7516 18.9116 16.6171 18.7349 17.4826C18.3814 18.6943 17.7628 19.8194 16.7907 20.6848C15.8186 21.6369 14.5814 22.2427 13.2558 22.5889C13.1674 22.5889 12.9907 22.6754 12.9023 22.6754C12.6372 22.762 12.4605 22.762 12.1953 22.8485C12.1953 22.8485 12.1954 22.8485 12.107 22.8485C11.8419 22.8485 11.5767 22.9351 11.3116 22.9351C10.6046 23.0216 9.98605 23.0216 9.27907 22.9351C7.86512 22.762 6.53951 22.4158 5.39068 21.6369C4.50696 21.1176 3.71163 20.3387 3.09302 19.5597C2.65116 18.9539 2.29766 18.3481 2.03255 17.5691C1.67906 16.8768 1.67906 16.7037 1.59069 16.6171Z" fill="#FAF9F7"/>
</svg>