<svg width="60" height="60" viewBox="0 0 60 60" fill="none" xmlns="http://www.w3.org/2000/svg">
<path d="M45 20C49.1421 20 52.5 16.6421 52.5 12.5C52.5 8.35786 49.1421 5 45 5C40.8579 5 37.5 8.35786 37.5 12.5C37.5 16.6421 40.8579 20 45 20Z" stroke="#219653" stroke-width="2" stroke-linecap="round" stroke-linejoin="round"/>
<path d="M15 37.5C19.1421 37.5 22.5 34.1421 22.5 30C22.5 25.8579 19.1421 22.5 15 22.5C10.8579 22.5 7.5 25.8579 7.5 30C7.5 34.1421 10.8579 37.5 15 37.5Z" stroke="#219653" stroke-width="2" stroke-linecap="round" stroke-linejoin="round"/>
<path d="M45 55C49.1421 55 52.5 51.6421 52.5 47.5C52.5 43.3579 49.1421 40 45 40C40.8579 40 37.5 43.3579 37.5 47.5C37.5 51.6421 40.8579 55 45 55Z" stroke="#219653" stroke-width="2" stroke-linecap="round" stroke-linejoin="round"/>
<path d="M21.4751 33.7749L38.5501 43.7249" stroke="#219653" stroke-width="2" stroke-linecap="round" stroke-linejoin="round"/>
<path d="M38.5251 16.2749L21.4751 26.2249" stroke="#219653" stroke-width="2" stroke-linecap="round" stroke-linejoin="round"/>
</svg>
